<svg xmlns="http://www.w3.org/2000/svg" viewBox="0 0 883 805"><svg xmlns="http://www.w3.org/2000/svg" fill="none" viewBox="0 0 883 805"><g filter="url(#a)"><path fill="#fff" d="M103.934 49.189c-14.419 14.795-14.502 34-6.5 52.5-5.502 19.5.099 39.077 18 44 19.998 5.5 31.998-2.5 49.5-9 5.998 2.5 13.8 6.309 23 5.5 8.379-.737 10.998-7 23-7 12.001 0 11.121 7.122 21 7 11.204-.139 18.498-11 26.5-11s9.969 7.49 17.5 8.5c7.063.947 11.498 0 18-3 0 0 11.498-4 22.5-2.5 11.001 1.5 12.498 4 17.998 2.5 15.002-6.5 7.502-9.5 19-10 8.5 0 16.24 8.972 30.002 7.5 11.553-1.236 22.498-12.5 27-12.5s6.1 10.1 14.5 12.5c8.399 2.4 21.166-1 26.5-3s12.498 4.5 24.998 0c6.162-2.219 4.5 6 17.502 3-4.002 10-10.977 14.226-14 25-3.483 12.408 4.998 21 0 33-10.002 20.5-26.843 29.737-33 53.5-5.241 20.225 1.771 32.682 0 53.5-.766 9-20.502 44-12.5 65-4.248-2.596-6.142-4.826-9.5-8.5-7.959-8.708-7.999-17.5-14.5-26.5s-25.002-19.5-40.5-22c6.498-25.5-7.167-27.834-4-32.5s8.399-17.8 4-33c-4.4-15.2-20.002-20-33.5-15.5 0-5 0-8.5-6.5-11 9.2-8.8 8.501-26.5 0-33-8.502-6.5-26.677-4.953-38.5 4.5-18.013 14.401-9.002 41.5 2.5 59 4.498 5.5-5 21.5-5 4.5s-13-24-32.502-11c-20.321 13.546-14.332 36.833-9.498 48-7.502 9-7.502 12-6 24-7.274 10.472-14.502 7-29 15-5.502 4-13.002 13.5-15 29.5-9.502 4-15 7-21 16-8.452 14.475 6 42.5 6 42.5 13.498 20 54.499 11.128 89 20 17.498 4.5 35.702 9 40 15 26.498 37 18.782 73.498 54.5 100 8.578 6.365 16.998 8.5 23.498 14-20-2.5-30.498 0-30.498 0s-10.83-9.178-18.5-14c-20.597-12.948-45.5-22-59-20-.167-7.167-1.093-22.405-10-32-10.767-11.598-39-11-39-11s-20.98-8.15-35-8c-15.396.164-30.167 6.666-38 10.5-7.834 3.833-32.48 3.546-41 19-7.846 14.229 5.814 25.496 3 41.5-2.055 11.682-3.964 18.602-10.5 28.5-35.002 53-46.002 71.5-87.5 134.5-1 3-1.468 40.5 0 43 2 19.499 21 18 21 18h784.999s20.73 0 21.5-19c.771-19 0-41.5 0-41.5-1.2-3.6-47-75-47-75-4.5-8.5 2.394-14.5-4.5-24.5-7.927-11.5-22-13-22-13-11.5-13-14.034-19.239-21.5-32.5-5.868-10.426-3.499-22.5-13.5-27.5-34.499-12.5-47.519-7.746-78-12.5-23.499-9.5-21.499-11.5-39-6 7.001-39.5 14.501-44.5 19.5-72 2.273-12.5-14.499-27.542-8-33.5 18.001-16.5 30-24.501 30-51 0-36.501-9.999-45.5-16.5-65 50.501-4.5 61.406-28.025 64-63 2.374-32-19.499-55.5-36.5-65.5-2.499-19.5-7.499-20.5-14-26 4.074-3.968 8.369-3.213 14-4 9.001 4 18.001 7.5 28.5 4 11.118 1.462 18.051 7.569 28.5 3.5 7.501-2.921 14.001-7.5 16.5-15.5 4-20.5 4-29.5 4-49 0-10.5-10.999-21-20.5-24.5-20.5-7-49.5-2.5-49.5-2.5l-.101-.034c-7.447-2.483-12.861-4.287-21.399-4.466-9.533-.2-14.619 6.217-24 4.5-7.301-1.337-10.499-4.5-14.999-8.5-5-17.5-15.5-21.5-27.5-21.5-14.894 0-24 2.5-29.501 21.5-7.999-2-13.499-1.5-18 0-1-1.334-6.665-9.242-13-12-7.698-3.352-15.499-2.5-21.499 0-1.5-4.5-7.358-12.95-15.5-14.5-10.5-2-14.109.565-21.5 5-12.5-2-17.5-1-25.5 3-5-1.667-20.074-8.876-30.5-3-9.817 5.531-14.167 17.666-13.5 25.5-12.378-10.398-15.441-10.5-30.063-10.986l-.437-.014c-6.5-14.5-15.019-19.822-28.5-19.5-19 .452-28 22.5-28 22.5-14-1.5-15.842 5.533-26 4-12.5-10.5-14.941-14.727-27-15-12.575-.285-16.494 11.254-28.5 15-10.914 3.404-29 4-29 4s-9.293-4.743-15.5-4c-6.422.768-12.5 5.5-14.5 8-5-3-7.534-1.89-12-4-8.3-3.921-4-8-18.5-14.5-17.28-6.927-33.508-2.833-46.5 10.5"/></g><path fill="#dededc" d="M520.432 180.188c-5.589 0-12.333-2.333-12.5-5-2 4.8 2.5 12.667 5 16l10-2c0-4.5-.998-9-2.5-9m89.505 81.5c7.591-10.006 14.001-22.666 15.501-26.5 7.999 5.6 14.662 19 16.996 24 0 7.5-12.422 27.5-13.5 26-12.541-17.45-19.755-22.5-18.997-23.5"/><path fill="#dededc" d="M553.933 177.188c-12.557 9.5-27.5 4.667-32 0-1.6 4 .667 9.667 2 12l30 3c-1.999-6 2.501-16.892 0-15"/><path fill="#dededc" d="M595.935 190.188c-26.4 10-37.667-6.833-40-16.5-3.6 6.8-2.834 15.167-2 18.5l35 14c4.499-12 10.499-17.325 7-16"/><path fill="#dededc" d="M636.934 219.188c-28.171-1.841-37.384-25.735-35.5-35.499-6.095 4.696-10.377 19.121-11 22.5l30 21.999c9.5-3.5 20.233-8.755 16.5-9"/><path fill="#dededc" d="M656.934 241.688c-19.494 2.853-21.833-13.5-20.5-21.5l-15.5 8 13 13.5 9.5 16.5-4 11c14.333 8.5 46.635 10 52.5-15 7.6-32.4-13.834-54.5-24.5-61 8.5 17.5 10 45.5-10.5 48.5m-15.999-59.5c9.999-2.801 9.833-13.833 8.5-19 6 4 9.5 17 10.5 23-8.501-3-22-3.159-19-4"/><path stroke="#000" stroke-linecap="round" stroke-width="4" d="m512.434 192.191-21 32.5c3.26-.537 7.7-.976 13-1.127 17.724-.507 45.057 2.193 70 15.127 13.616 7.06 24.647 15.427 33.221 23.497 11.827 11.135 18.976 21.705 21.779 27.503l9.666-20.001m-126.666-77.499c-4.167-6-10-21.7 0-36.5s34-15.001 43-11m-43 47.5c2.592-1.065 6.654-2.017 12-2.382m64.5 17.382c-13.142-7.181-25.087-11.658-35.5-14.29m35.5 14.29c2.166-7.668 8.6-23.803 17-27.003m-17 27.003c12.382 6.766 22.243 13.677 30 20.235m-63.5-82.735c16-8.503 36.228-10.74 59.5-4.001 24.166 7 45 27.827 45 46m-104.5-41.999c-2.667 2.166-6.5 5.497-8 9.997m112.5 32.002c32.5 18.5 37 45 32.5 66.5-3.389 11.305-17 30.998-53.334 16.5m20.834-83c-7.906-4.5-20.834-4.5-19.5-4.5m-1.334 87.5 4.834-9.999c-.42-1.68-1.286-3.884-2.691-6.501m-116.809-63.381c-1.667-2.707-4.5-10.421-2.5-19.621m2.5 19.621c7.38-.503 17.208.112 29 3.092m0 0c-.5-5.737-.2-18.713 5-24.713m60.5 59.238c5-.246 16.3-3.038 21.5-12.238m-21.5 12.238c11.838 10.007 18.778 19.188 22.309 25.764m0 0c5.23 0 16.591-1.102 20.191-5.502"/><path fill="#70402c" d="M202.434 382.188v13.5c4 4.5 31.1 13.9 107.5 15.5s107.5-9.666 113.5-15.5v-13.5c0 5-33.1 17.1-113.5 15.5s-107.5-10.5-107.5-15.5"/><path fill="#ba8e67" d="M309.934 397.688c80.4 1.6 113.5-10.5 113.5-15.5 0-18.499-221-19.5-221 0 0 5 27.1 13.9 107.5 15.5"/><path stroke="#000" stroke-width="4" d="M202.434 382.188v13.5c4 4.5 31.1 13.9 107.5 15.5s107.5-9.666 113.5-15.5v-13.5m-221 0c0 5 27.1 13.9 107.5 15.5s113.5-10.5 113.5-15.5m-221 0c0-19.5 221-18.499 221 0"/><path fill="#f2a038" d="M220.432 372.689s-9.998-20.5 35.5-41.5c3.25-1.5 4.793 2.282 8.002 2 5.528-.487 6.121-6.351 10.998-9 7.37-4.004 12.675-5.522 21-4.5 5.332.654 7.474 2.999 12.002 2.999 4 0 7.5-3.5 10-3.5 8.501.001 16.844-.821 25.998 3.001 2.502 1.044 7.145 7.22 13.002 6.999 3.085-.116 4.5-2.5 7.498-1.999 19.002 7.499 35.502 19.499 42.5 33.5 2.095 4.191 0 12 0 12-1.167 6-21.6 18.3-94 19.5s-91.833-12.5-92.5-19.5"/><path fill="#ce742e" d="M310.43 381.188c-62 1.6-87-11-89.997-19-1.6 4.4 1.164 13 2.997 16 2.834 3.834 24.169 14 87 14 62.502 0 90.5-11.833 96.5-19v-12c-2.498 8-34.5 18.4-96.5 20m-35.498-56.999c-4.877 2.649-5.47 8.513-10.998 9-3.209.282-4.752-3.5-8.002-2 0 0 7.163 7.037 12.002 14.499 4.192 6.466 5.497 13.5 6.998 13.5s3.594-10.384 3.002-19.5c-.523-8.036-3.002-15.499-3.002-15.499m43.002-5.001c-2.5 0-6 3.5-10 3.5-4.528 0-6.67-2.345-12.002-2.999 3.834 4.5 10.073 11.5 13.502 17.499 6 10.5 6.5 20.5 8 20.5s5-12 5-21.5c0-8.999-2.667-14-4.5-17m46.498 8.001c-2.998-.501-4.413 1.883-7.498 1.999-5.857.221-10.5-5.955-13.002-6.999 3.001 3.833 8.774 8.999 11.502 18.999 2.591 9.5 2.5 15 4 15.5s6.423-7 7-14.5c.615-8-1.168-11.999-2.002-14.999"/><path stroke="#000" stroke-width="4" d="M255.932 331.189c-45.498 21-35.5 41.5-35.5 41.5.667 7 20.1 20.7 92.5 19.5s92.833-13.5 94-19.5c0 0 2.095-7.809 0-12-6.998-14.001-23.498-26.001-42.5-33.5m-108.5 4c3.25-1.5 4.793 2.282 8.002 2 5.528-.487 6.121-6.351 10.998-9m-19 7s7.163 7.037 12.002 14.499c4.192 6.466 5.497 13.5 6.998 13.5s3.594-10.384 3.002-19.5c-.523-8.036-3.002-15.499-3.002-15.499m89.5 3c-2.998-.501-4.413 1.883-7.498 1.999-5.857.221-10.5-5.955-13.002-6.999m20.5 5c.834 3 2.617 6.999 2.002 14.999-.577 7.5-5.5 15-7 14.5s-1.409-6-4-15.5c-2.728-10-8.501-15.166-11.502-18.999m0 0c-9.154-3.822-17.497-3-25.998-3.001m0 0c-2.5 0-6 3.5-10 3.5-4.528 0-6.67-2.345-12.002-2.999m22.002-.501c1.833 3 4.5 8.001 4.5 17 0 9.5-3.5 21.5-5 21.5s-2-10-8-20.5c-3.429-5.999-9.668-12.999-13.502-17.499m0 0c-8.325-1.022-13.63.496-21 4.5"/><path fill="#ffdf93" d="M258.434 345.188c0 2.21-2.015 5-4.5 5-2.486 0-4.5-.79-4.5-3s2.014-5 4.5-5c2.485 0 4.5.791 4.5 3m77.717-11.113c-.491 1.291-2.366 2.443-3.915 1.854-1.548-.59-2.628-1.53-2.137-2.82s2.367-2.443 3.916-1.853c1.548.589 2.628 1.529 2.136 2.819m50.147 13.616c-.556 1.46-3.037 3.693-4.864 2.997-1.828-.695-2.814-2.734-2.258-4.195.555-1.46 2.739-2.741 4.567-2.045s3.111 1.783 2.555 3.243m-8.163-6.721c-.219.576-1.296 1.42-2.142 1.098-.847-.322-1.341-1.167-1.122-1.743s1.182-1.042 2.029-.72c.846.322 1.454.789 1.235 1.365m-37.484-10.2c-.354.428-1.342.52-2.01-.032-.667-.553-1.081-1.154-.727-1.582.354-.427 1.342-.52 2.009.033.668.553 1.082 1.154.728 1.581m5.502 8.305c-.491 1.291-2.367 2.443-3.916 1.854-1.548-.59-2.628-1.529-2.136-2.82.491-1.29 1.284-2.51 2.833-1.92 1.548.589 3.71 1.596 3.219 2.886m-45.365-3.091c.285.974-.235 2.462-1.321 2.78-1.087.317-2.069.226-2.354-.748s-.266-1.715.821-2.032c1.086-.318 2.57-.974 2.854 0m-2.073-2.795c-.905 1.026-4.22 2.376-5.781.999-1.562-1.376-2.122-2.935-.694-5.055 1.428-2.121 1.599 0 2.927 1.878 1.562 1.377 5-1.5 3.548 2.178m-7.252 4.222c-1.118.81-3.319.744-4.29-.598s-1.359-2.72-.24-3.529c1.118-.81 2.451-1.395 3.422-.052s2.227 3.369 1.108 4.179"/><path stroke="#000" stroke-linecap="round" stroke-width="4" d="M272.435 258.688c-2.5 2.667-6 10 0 18 7.5 10 4 16 0 22.5s-6.5 7.5-2 15.5m46.997-115.5c-5.834 5.667-12.973 19.029 0 32.5 12.999 13.5 6.502 24.135-2.5 32.5-3.766 3.5-14.5 16.5 0 31.5m33.502-49.5c3.333 3.834 5.5 12-1.5 20.5-4.844 5.883-5.001 15.5 0 20.5 5 5 10 12 1.5 20"/><path fill="#70402c" d="M570.434 237.188c-27-13.5-58-14.5-75.5-12-13.6 6.4-18.501 18-22 31s-3.001 29.5 3.499 42.5c-5.501 13-23.292 53.5-11.999 77 11.297 23.5 19 11.5 22.5 17s6.5 6.385 10 8c6.5 3 68 7.5 96 7.5 18 0 26-11 26-11s25.304-2 27.5-30-14.5-58.5-14.5-58.5c-4-13.5-.762-17.137-2.5-20-8.5-14-25.864-34.932-59-51.5"/><path stroke="#000" stroke-linecap="round" stroke-width="4" d="M618.934 397.188s25.304-2 27.5-30-14.5-58.5-14.5-58.5c-4-13.5-.762-17.137-2.5-20-8.5-14-25.864-34.932-59-51.5-27-13.5-58-14.5-75.5-12-13.6 6.4-18.501 18-22 31s-3.001 29.5 3.499 42.5c-5.501 13-23.292 53.5-11.999 77 11.297 23.5 19 11.5 22.5 17m132 4.5s-8 11-26 11c-28 0-89.5-4.5-96-7.5-3.5-1.615-6.5-2.5-10-8m132 4.5s10.5-13 7-34.5m-139 30c-1.909-3-7-15-4.5-27.5m76-116c1.166 7.334 8.3 23.9 27.5 31.5"/><path fill="#f4bf99" d="M558.936 281.688c6.566 7.569 27 22 33.999 22 3.001 0 19.16-16.5 29.5 1.5 4.308 7.5 1.957 22.529-7.499 29.5-12 8.848-22.001 0-24.5 3.5-16.116 22.573-47.742 46.214-77.501 35-34.502-13-36.501-40.499-34.5-73.5.788-13 3.498-26 9-38.5.202-.458.598-.875 1.166-1.273 5.627-3.945 28.121-6.112 45.833-29.727 1.5 9.5 4.361 20 7 26.5 5.277 13 10.937 17.432 17.502 25"/><path fill="#f69072" d="M495.432 315.188c-1.551-11.886-12.833-12.833-16-12.5-2 6.8-.833 21.834 0 28.5 7.5-.833 17.502-4.5 16-16"/><circle cx="558.934" cy="325.688" r="15.5" fill="#f69072"/><path stroke="#000" stroke-linecap="round" stroke-width="4" d="M487.435 261.188c-5.502 12.5-8.212 25.5-9 38.5-2.001 33.001-.002 60.5 34.5 73.5 29.759 11.214 61.385-12.427 77.501-35 2.499-3.5 12.5 5.348 24.5-3.5 9.456-6.971 11.807-22 7.499-29.5-10.34-18-26.499-1.5-29.5-1.5-6.999 0-27.433-14.431-33.999-22-6.565-7.568-12.225-12-17.502-25-2.639-6.5-5.5-17-7-26.5-19.5 26-44.798 26-46.999 31Zm0 0c4.999-4.5-7.501 3.5-10.501 8"/><path stroke="#000" stroke-linecap="round" stroke-width="4" d="M489.934 274.689c4-2 13.8-4.6 21 1m28 3.5c4.5-1.501 10.5-2 18 1m-55 53.999c4 5.334 16.1 13.2 32.5 2m62.5-12.499c1-5.667 5.6-16.4 16-14"/><ellipse cx="500.354" cy="295.481" fill="#000" rx="5.602" ry="9.483" transform="rotate(9.72 500.354 295.481)"/><ellipse cx="546.557" cy="301.48" fill="#000" rx="5.602" ry="9.483" transform="rotate(14.398 546.557 301.48)"/><path stroke="#000" stroke-linecap="round" stroke-width="4" d="M519.434 295.688c-2 19-10.138 14-11.501 17-2.272 5 6.001 10.5 9.001 9.5m6.5 97.36 3.61-42.759c21.044 1.61 39.028-10.396 45.39-16.601v51.814c0 10.564-45.39 17.103-49 7.546Z"/><path fill="#fff" d="M430.934 449.188c10.5-11.499 49.5-47.5 66.5-47.5 3.611-.619 8.819-.918 15-.96 18.849-.128 46.747 2.143 66 5.067 5.028.763 9.467 1.572 13 2.393 6 1.834 19.9 8.701 27.5 21.501s4.5 27.666 2 33.5c-10.143 30.697-15.904 46.858-24.987 86.999-2.259 9.986-4.724 21.455-7.513 35.001-1.413 6.867-92.288 5.059-143.133 4.047l-2.367-.047s4.5-34.501 6.5-54.5c-2.15-3.403 0-5.501-6-10.001-2-1-1.5 9-12 12.5-7.5 3-14.002.001-13-2.499s4.713-4.394 6.5-8c4.648-9.378-3.649-16.04-4-26.5-.678-20.285 10-51.001 10-51.001"/><path fill="#dededc" d="M480.434 421.188c-11.2 6.801-26.667 31.5-33 43l4.5 4c12.5-26.5 32-49.125 28.5-47m39.5 95.5c-4 4.8-14.667 8-19.5 9 1 17.5 0 20-5.5 23 .944 11.808 18.666 2.834 26.5-3 1.166-11.666 2.5-33.8-1.5-29"/><path fill="#dededc" d="M605.434 457.188c-18.565 25.27-61.667 52.334-84 62 2.4 7.2 1 18 0 22.501 28.833-15.667 88.9-53 98.5-77s-2.5-35.501-7.5-40.001c1 6.5 1.5 19.5-7 32.5m-164 69.5c0 12.5-20 13-22.5 8.5l7.5-14.5-6-19.5c7 7.5 21 15.193 21 25.5"/><path fill="#dededc" d="M469.435 563.688c-18-2.4-21.501-15.5-19.5-27l72.499 5.5 96-73-23 81.5c-7.5-1.5-20.5-8.5-25-23-39 32.5-63 41.067-100.999 36"/><path stroke="#000" stroke-linecap="round" stroke-width="4" d="M497.434 401.688c-17 0-56 36.001-66.5 47.5 0 0-10.678 30.716-10 51.001.351 10.46 8.648 17.122 4 26.5-1.787 3.606-5.497 5.5-6.5 8-1.002 2.5 5.5 5.499 13 2.499 10.5-3.5 10-13.5 12-12.5m54-123c-24 27.667-68.4 91-54 123m54-123c3.611-.619 8.819-.918 15-.96m79 7.46c6 1.834 19.9 8.701 27.5 21.501m-27.5-21.501c-1.833 1.834-5.5 7.2-5.5 14m5.5-14c-3.533-.821-7.972-1.63-13-2.393m40.5 23.894c7.6 12.8 4.5 27.666 2 33.5m-2-33.5c-13.999-15-25-8.501-33-7.501m35 41.001c-10.422 17.441-30.641 34.996-51 49.491m51-49.491c-10.143 30.697-15.904 46.858-24.987 86.999m-152.513-25.5c2.25 5 3.85 6.598 6 10.001-2 19.999-6.5 54.5-6.5 54.5 50.334 1 144.064 2.975 145.5-4 2.789-13.546 5.254-25.015 7.513-35.001m-97.699-70.5c-1.989-1.146-3.537-1.741-4.314-2-3-1-15.5 5.5-16.5 7.5s0 4.5 0 4.5c11 4.5 15 14 20 27.5 4.001 10.8 4 28.5 2.5 29.5l-4.5 2.5s1.883 4.763 4.5 5c11 1 21-7.5 21-7.5.464-.618 1.071-2.29 1.482-5m-24.168-62c5.693 3.282 14.998 11.086 20.186 28.5 4.834 16.23 4.899 27.452 3.982 33.5m-24.168-62a2778 2778 0 0 1 34.428-24m53.258-33.5c-2.295.287-9.304 3.768-20.5 11m-43.018 108.5c11.553-5.853 29.59-16.244 47.518-29.008m0 0c-.325 12.17 4.424 36.708 26.013 37.508m-17.513-144.393c-4 6.893-13 16.393-13 27.393m13-27.393c-19.253-2.924-47.151-5.195-66-5.067m53 32.46c-9.249 5.975-21.83 15.01-32.758 22.5m-20.242-54.96c-10.5 10.46-29 44.46-27.5 46.96 6 2.5 31.161 9.5 47.742 8"/><path fill="#f4bf99" d="M570.434 412.383c0 10.234-43.537 16.569-47 7.31l3.463-41.423c6.012 0 24.242-3.04 33.642-8.665 4.391-2.627 7.8-5.353 9.895-7.417z"/><path fill="#000" stroke="#000" stroke-linecap="round" d="M526.434 385.188v-8.868c17.457 1.927 47.669-19.132 44.81-15.766-17.457 20.557-35.58 24.634-44.81 24.634Z"/><path fill="#e52c31" stroke="#000" stroke-linecap="round" stroke-width="4" d="M530.434 402.688c-.5-2-5.499-9-5.499-18.5-5.501 2-12.317 9.783-12.5 18.5-.213 10.154 5.998 17.5 15.499 20 .999-16 3-18 2.5-20Zm7 .5c-1.5 1.5-5 20.5-5 20.5 28.8 4.4 43.166-11.833 47.5-20.5 0-6.999-3-16.999-7.5-18-12.5 15.5-33 16-35 18Z"/><path fill="#f4bf99" d="M394.935 419.188c33.501 30 67.999 58.5 86.499 78 3 1.5-4.5-6.5-2.5-6.5 8.5 2 14.499 15.5 19 28 4 18 3.23 25 1 28s-29.5 10.5-36 2c-24.5-25-66-80-94.499-116.5-11.857-2.711-22.501-.763-32.501-3.5-14.001-3.831-25-8.5-29.501-16.5-.904-2 54 1.5 57-3 1.5-2.25-6.997-6-15.998-13-.999-4.5 1.001-8.5 4.5-8.5 9.5 2.5 28.501 8.5 38.5 15.5 3.245 5.621 2.323 9.886 4.5 16"/><path fill="#ea9c77" d="M479.434 537.688c-10 4.595-29-5.5-35.5-12l22 25.5c4 2.5 18.098 5.12 34-5 3-23.5-6.5-43.5-17-53 4.833 11.667 9.5 38.528-3.5 44.5"/><path fill="#f4bf99" d="M305.934 412.188h-16.5c4.4 8 23.5 12.334 32.5 13.5zm80 119.5c-7.6-2.8-38.5-70.166-53-103.5l35.5 3.5 53.5 68.5 4.5 17c-.334 6-3.6 18.5-14 20.5-13 2.5-18.5 0-26.5-6"/><path fill="#ea9c77" d="M404.934 526.188c-15.6 7.2-28.834-10-33.5-19.5 6 19.5 22.5 42 46.5 28.5 15-10.5 2.166-38.833-7-48 4.5 10 9.6 31.8-6 39"/><path stroke="#000" stroke-linecap="round" stroke-width="4" d="M306.433 412.188c-.904-2 54 1.5 57-3 1.5-2.25-6.997-6-15.998-13-.999-4.5 1.001-8.5 4.5-8.5 9.5 2.5 28.501 8.5 38.5 15.5 3.245 5.621 2.323 9.886 4.5 16 33.501 30 67.999 58.5 86.499 78 3 1.5-4.5-6.5-2.5-6.5 8.5 2 14.499 15.5 19 28 4 18 3.23 25 1 28s-20 15-36 2c-12.071-12.317-28.27-31.917-45.006-53m-111.495-83.5c4.501 8 15.5 12.669 29.501 16.5m-29.501-16.5h-19.999c6.942 5.207 25.387 15.344 46 16.409m3.5.091c10 2.737 20.644.789 32.501 3.5 14.457 18.517 32.26 41.794 49.493 63.5m-81.994-67q-1.76 0-3.5-.091m0 0c14 32.864 44 96.091 55 105.091 6 6 28 14.5 38.5-9 2.5-12-3-22.719-8.006-29"/><path fill="#70402c" d="M48.434 719.688v29.5h778v-29.5z"/><path fill="#976648" d="M48.434 719.688h778l-17.813-29-26.719-43.5-23.648-38.5-13.82-22.5h-610l-36.72 57-31.565 49z"/><path stroke="#000" stroke-linecap="round" stroke-width="4" d="M48.434 719.688v29.5h778v-29.5m-778 0h778m-778 0 17.715-27.5m760.285 27.5-17.813-29m-742.472 1.5c16.428-.333 51.185-.3 58.785 2.5m-58.785-2.5 31.566-49m-.781 59c9.5 1.167 30.3 3.5 37.5 3.5h33c10 0 21 1.5 35 3.5m43-14.5c5.5.834 12.636-.123 18.5 7.5 5 6.5 36.666 3 53.5 1 14.666-2 45.6-5.4 52-3m26.5-15.5c16.666-1.166 55.6-2.8 78 0m-58 10.5c15.166-1 49-2.4 63 0s13 3.858 21 5c7 1 23.8 2.4 35 0m-18.5 10c12.166-1.833 40.1-5.2 54.5-4m35.5-4h46m68.5 0c6.666-1.333 28.3-2.2 57.5 1m-31.5-12.5h61.687m0 0-26.719-43.5m-56.468-38.5h32.82m0 0-13.82-22.5h-610l-36.72 57m660.54-34.5 23.648 38.5m-242.968-46h18.5m-53.5 0h26.5m-183.5 9h33m-130 37h97m-217.5-4h-31.72m8.72 17h33m0 2.5h25m576.5-15.5h40.968"/><path fill="#ee9d38" d="M625.933 581.688c-45.6-.4-70-10.166-76.5-15-1.5 3.5 10 33 20.5 47 8.4 11.2 27.834 23 36.5 27.5 17.834 4.167 55.7 10.4 64.5 2 11-10.5 16.5-17 26.5-32.5 8-12.4 11-27.833 11.5-34-8.666 1.834-37.4 5.4-83 5"/><path fill="#d17930" d="m735.408 565.54.026-.351c0-4-20.3-16.1-89.5-16.5s-97 11.999-97 16.5l.052.335c1.581 5.183 38.641 16.73 96.948 15.165 26.881-.722 47.72-2.522 62.5-4.923 17.44-2.833 26.442-6.503 26.974-10.226"/><path fill="#d17930" d="M735.408 565.54c-.532 3.723-9.534 7.393-26.974 10.226 1.5 14.922-16.5 53.422-41.5 69.004 50.331-10.907 66.712-55.481 68.474-79.23"/><path stroke="#000" stroke-linecap="round" stroke-width="4" d="M735.434 565.189c0-4-20.3-16.1-89.5-16.5s-97 11.999-97 16.5m186.5 0-.026.351m.026-.351q0 .175-.026.351m-186.474-.351.052.335m-.052-.335q0 .162.052.335m186.422.016c-.532 3.723-9.534 7.393-26.974 10.226m26.974-10.226c-1.762 23.749-18.143 68.323-68.474 79.23m-117.948-79.246c1.581 5.183 38.641 16.73 96.948 15.165 26.881-.722 47.72-2.522 62.5-4.923m-159.448-10.242c4.484 28.106 30.015 83.258 96.948 81.665 7.581-.181 14.568-1.025 21-2.419m41.5-69.004c1.5 14.922-16.5 53.422-41.5 69.004"/><path fill="#f9e2b7" stroke="#000" stroke-linecap="round" stroke-width="4" d="M693.433 563.188c7.088 1.864 24.801 11.1 18.001 19.5s-56.5 6-73.001 6c-14.999-1-64.349 7.551-56-13 3.326-8.186 6.529-10.986 15.001-13.5 5.054-1.499 9 0 14-3.5 5.501-5 9-13 26.999-14.5 10.051-.094 14.501 1.5 23.5 10.5 3.501 2.5 8.42-.88 12.501 0 5.668 1.224 4.498 5.666 10 7.5 3.89 1.297 5.033-.042 8.999 1Z"/><path fill="#ee9d38" d="M625.933 581.688c-45.6-.4-70-10.166-76.5-15-1.5 3.5 10 33 20.5 47 8.4 11.2 27.834 23 36.5 27.5 17.834 4.167 55.7 10.4 64.5 2 11-10.5 16.5-17 26.5-32.5 8-12.4 11-27.833 11.5-34-8.666 1.834-37.4 5.4-83 5"/><path fill="#ed9e39" d="m548.934 565.188.052.336c1.581 5.183 38.641 16.73 96.948 15.164 26.881-.721 47.72-2.521 62.5-4.922 17.44-2.833 26.442-6.503 26.974-10.226-1.474 27.148-24.474 81.648-89.474 81.648-66.933 1.594-92.464-53.558-96.948-81.664a1.2 1.2 0 0 1-.052-.336"/><path fill="#d17930" d="M672.934 643.188c27.501-23 35.667-53.833 35.5-67.5 17.201-1.2 19.499-4.5 27.5-8.5.003 59-66.334 78.789-63 76"/><path stroke="#000" stroke-linecap="round" stroke-width="4" d="m548.986 565.524-.052-.336q0 .163.052.336Zm0 0c1.581 5.183 38.641 16.73 96.948 15.164 26.881-.721 47.72-2.521 62.5-4.922 17.44-2.833 26.442-6.503 26.974-10.226-1.474 27.148-24.474 81.648-89.474 81.648-66.933 1.594-92.464-53.558-96.948-81.664Z"/><path fill="#f9e2b7" d="M300.934 631.189c-2.489-6.5 36.48-6.401 60-9.5 60.33-7.95 95.664-21.071 155.5-10 11.038 2.042 12 3.687 27 7.499 9.135 2.322 18.85-.999 23.5 5.501 4.292 5.999-5 5.499 3.5 12 0 0 15.5 12.114 0 10-11-1.501-13.5 1.4-13.5 7s-11 5.666-16.5 5-8.633 3.997-14.5 5.5c-13.052 3.343-25.5-7.501-34.5 0-5 4.167 1 5.499-7 9.999-11.5 2.501-42.5 8-53.5 2.501-12.489-6.245-19.92-9.25-33.5-12.5-19.593-4.69-42 8-51.5-3-3.701-4.286 3.537-10.079 0-14.5-8-10-38.353 1.857-45-15.5"/><path fill="#f9e2b7" d="M445.935 596.688c-76.001 4-92.833 29.167-91 40.5 0 8.5 40.471 22.501 91 22.501 59.999 0 91.698-12.5 92.499-22.501.8-10-11.5-36-92.499-40.5"/><path fill="#e6c285" d="M443.434 649.188c-62.8 0-86.75-16.75-85-22.5l-3.5 11.5c3.5 7 27.5 18.5 88.5 22 68-1.2 91.666-15.166 95-22l-2-9.5c1 4.75-30.2 20.5-93 20.5"/><path stroke="#000" stroke-linecap="round" stroke-width="4" d="M445.935 596.688c-76.001 4-92.833 29.167-91 40.5 0 8.5 40.471 22.501 91 22.501 59.999 0 91.698-12.5 92.499-22.501.8-10-11.5-36-92.499-40.5Z"/><ellipse cx="395.934" cy="672.188" fill="#f9e2b7" rx="4.5" ry="3"/><ellipse cx="374.434" cy="670.188" fill="#f9e2b7" rx="3" ry="2"/><ellipse cx="546.722" cy="614.631" fill="#f9e2b7" rx="4.5" ry="3" transform="rotate(21.532 546.722 614.631)"/><path fill="#e2a04b" d="M593.435 689.189c4.5-.869 15.5-7.501 11-28-4.5-20.5-16.5-22.317-21.501-21.5l147.001-24.001c3.373.984 10.015 5.071 13.454 14 5.682-2 17.163-6.593 18.546-7 8.5-2.5 9-1.666 13-1 6 1 11 13 5.5 18.001-10 4.499-23 1.999-34.93 1.999-.119 9.588-4.463 16.757-7.07 19.501z"/><path fill="#d17930" d="m745.434 643.188-140 25.5c0 8-5.334 16.334-8 19.5 0 0 108-19.5 142.5-28 5.5-6.5 5.5-17 5.5-17m38-11.499c-7.879 3.939-28 5.166-38.5 3.5 0 0 .499 2.499.5 6.499 35 3 36-2.999 36-2.999 2 0 4-8.001 2-7"/><path fill="#d17930" d="M604.432 660.688c-2.4-14-15-19.5-21-20.5-6.5 3-13.499 8.5-11.498 28.5 5.998 16.5 17.498 21 22.498 20.5s13-11 10-28.5"/><path stroke="#000" stroke-linecap="round" stroke-width="4" d="M582.934 639.689c-5.004.816-13.592 11.41-11 28 2.499 15.999 17.001 22.368 21.501 21.5m-10.501-49.5c5.001-.817 17.44 3 21.501 21.5 4.061 18.499-6.5 27.131-11 28m-10.501-49.5 147.001-24.001c3.373.984 10.015 5.071 13.454 14m-149.954 59.501 145-28c2.607-2.744 6.952-9.913 7.07-19.501m-2.116-12a31 31 0 0 1 1.546 5.5 33 33 0 0 1 .57 6.5m-2.116-12c5.682-2 17.163-6.593 18.546-7 8.5-2.5 8.999-2 12.499-2 10 1 13.5 14.5 6.001 19.001-10 4.499-23 1.999-34.93 1.999"/><path fill="#e2a04b" d="M570.434 661.189c-9.5 1.499-14.499-2.001-23.5 0-9.002 2-13.358 6.721-12.5 14 .922 7.817 7 11 17.001 9.499s12.979-7.402 21.999-9.499c4.977-1.158 6 .999 13-1.001 3-2 4.516-3.5 3-9.999-1.165-5.001-3.999-8.5-8.5-7.5s-6.093 3.804-10.5 4.5"/><path fill="#d17930" d="M547.435 677.188c-8.501 0-12.999-4.499-12.999-3.499 0 0-2 14 18.499 11 8.381-1.227 11.367-7.129 19.5-9.5 5.701-1.663 11.998-1.001 14.499-3.501s3.072-6.5 2.501-5.5c-1.601 2.8-14.501 2.301-18.5 3.5-5.001 1.5-13.867 7.5-23.5 7.5"/><path stroke="#000" stroke-linecap="round" stroke-width="4" d="M570.434 661.188c-9.5 1.5-14.499-2-23.5 0-9.002 2.001-13.358 6.721-12.5 14 .922 7.817 7 11 17.001 9.5s12.979-7.402 21.999-9.5c4.977-1.157 4 0 11-2 3-.857 6.166-3.999 5-9-1.165-5-5.5-7-10-6-4.501 1-4.593 2.305-9 3Z"/><path fill="#84cff3" d="M289.434 553.188c23.2 0 33 3.5 33 7.5v54.5c-2 3.5-9 7.5-33 7.5-21.615 0-33.5-4.5-35.5-7.5v-54.5c0-3.5 12.3-7.5 35.5-7.5"/><path fill="#84cff3" d="M289.434 553.188c23.2 0 33 3.5 33 7.5 0 3-13 8-33 8-20.416 0-35.5-4.5-35.5-8s12.3-7.5 35.5-7.5"/><path fill="#6eb6df" d="M289.528 557.188c20.322 0 28.906 3.162 28.906 6.775 0 2.709-11.387 5.225-28.906 5.225-17.882 0-31.094-2.064-31.094-5.225 0-3.162 10.773-6.775 31.094-6.775"/><path fill="#6eb6df" d="M311.937 607.188c1.9-4.757 3.665-28.5 2.499-41.5l7.501-3v53c-4.503 6-17.503 6-17.503 6-8 1-12.5 1-9.498 0 15.001-4.998 16.003-12 17.001-14.5"/><path stroke="#000" stroke-linecap="round" stroke-width="4" d="M322.434 560.688c0-4-8-7.5-33-7.5-26.5 0-35.5 4-35.5 7.5m68.5 0c0 3-7 7.5-33 8-25.496.491-35.5-4.5-35.5-8m68.5 0v54.5c-2 3.5-9 7.5-33 7.5-21.615 0-33.5-4.5-35.5-7.5v-54.5"/><path fill="#84cff3" stroke="#000" stroke-width="4" d="M315.434 575.188c0-4.499 4.5-4.5 7-4.5 0 0 8 0 11.5 1.5 5.5 2.358 8.5 7 8.5 17s-6.5 14.158-8.5 15c-2.5 1.053-8.7 1.5-11.5 1.5-3.5 0-7 0-7-4.5 0-4 4.5-4 7-4s6 0 9-1.5c1.5-1.5 2.5-3.5 2.5-7.5 0-5-1-7.25-2.5-8-3-1.5-6.5-1-9-1s-7 .5-7-4Z"/><path fill="#b6835b" d="M251.932 510.188c10.501 3 13.001 14.001 2.5 27 0 0 8.16 3 0 9 0 0 13.001 18.5 15.002 36 3 16.5 3 30 3 38 2 8 13.499 13 13.499 19.5-5.999 3.5-12.199.56-18.5 3.5-22.499 10.5-36.253 13.542-60.501 14-24.045.455-37.499-2-60.499-11.5-7.997-.374-18.418 3.5-20.5 0-4.063-6.831 5.455-9.97 8.001-17.5-3.5-15.5-2.829-26.24 0-42 2.793-15.566 15.498-37.5 15.498-37.5-7.999-5.148 0-8.5 0-8.5-7.998-6-9.18-13-7.999-18 2.833-11.999 16.668-7.401 28-10.5 14.438-3.947 14.5-8.5 37.499-8.5 9.764.001 14.319 5.74 24 7 8.133 1.059 10.501-1.999 21 0"/><path stroke="#000" stroke-linecap="round" stroke-width="4" d="M149.432 540.188c-7.998-6-9.18-13-7.999-18 2.833-11.999 16.668-7.401 28-10.5 14.438-3.947 14.5-8.5 37.499-8.5 9.764.001 14.319 5.74 24 7 8.133 1.059 10.501-1.999 21 0 10.501 3 13.001 14.001 2.5 27m-105 3s-7.999 3.352 0 8.5m0-8.5c2.624 1.25 5.84 2.421 9.502 3.471m95.498-6.471s8.16 3 0 9m0-9c-6.094 3.161-13.36 5.755-21.498 7.676m-83.502 3.824s-12.705 21.934-15.498 37.5c-2.829 15.76-3.5 26.5 0 42-2.546 7.53-12.064 10.669-8.001 17.5 2.082 3.5 12.503-.374 20.5 0 23 9.5 36.454 11.955 60.499 11.5 24.248-.458 38.002-3.5 60.501-14 6.301-2.94 12.501 0 18.5-3.5 0-6.5-11.499-11.5-13.499-19.5 0-8 0-21.5-3-38-2.001-17.5-15.002-36-15.002-36m-105 2.5c1.779 1.145 4.886 2.665 9.502 4.13m95.498-6.63c-1.824 1.342-5.012 2.97-9.498 4.574m-87-30.074c9-2 17.823 4.338 25.5 5 9.921.857 9.663-.447 19.5-2 7.206-1.137 10.704-5.027 18-5 6.015.023 9.998 3.5 15 3.5 4.718 0 7.432-1.911 11-5m3.5 54c-.667-5.284-2.7-16.767-5.5-20.426m0 0c-9.45 3.38-24.658 6.655-45.002 6.926-12.913.173-25.64-1.494-33.498-3m72-24c-.167 2.951-1.5 9.916-5.5 14.176m0 0c-9.891 2.334-21.07 3.674-33.002 3.824-11.225.142-22.452-.978-31.998-2.872m-11-14.128c-.054 2.667.656 8.9 3.92 12.5m0 0a90 90 0 0 1-1.92-.529m1.92.529c2.226.59 4.596 1.135 7.08 1.628m-9-2.157c-.72 3.15-1.344 9.507 1.92 9.739m0 0c1.36.848 4.68.519 7.08-7.582m-7.08 7.582a69 69 0 0 1-1.92-.58m1.92.58q.999.288 2.08.568m5-8.15 1-3.128m-10 10.13s-6 8.87-7.5 15.87c-.666 3.109-1.516 6.995 1.5 8 3.015 1.006 5-2.5 6-5.5 2.183-6.55 4-17.222 4-17.222m0 0q.73.19 1.5.374m0 0s2 10.223 2 16.848c0 3 2.305 5.605 5 5 2.653-.595 2.5-3.5 2.5-6.5 0-5.945-7.5-15-7.5-15m-2-.348c1.404.337.403.043 2 .348"/><path fill="#8e684d" d="M147.932 633.688c-6.187-3.005-14.5-10-14.5-10v7c-4.166 3.834-11.3 12.2-6.5 15s16 1.167 21 0c4.167 2.667 20.8 8.6 54 11s58.834-8.666 67.5-14.5h10.5l6-4-12-14.5-1.5-5s-14.237 12.952-25.5 17c-17.655 6.346-19.498-2-48-2s-33.085 8.704-51 0m40.002-123.5c-11 5.001-17.667 6.667-21.5 7-9.5.827-11.294 3.001-7.499 3.001 8.999 0 23.498 8.1 36.499 5.499 9.999-1.999 13.001-5.5 27-7 11.001 3 15.167 3.834 16.5 3 5.501-1.5 8.37-6.996 7.501-6.499-10.5 5.999-27.002-3.001-31.001-5.001-3-1.5-17-4-27.5 0"/><path stroke="#000" stroke-linecap="round" stroke-width="4" d="M149.432 540.188c-7.998-6-9.18-13-7.999-18 2.833-11.999 16.668-7.401 28-10.5 14.438-3.947 14.5-8.5 37.499-8.5 9.764.001 14.319 5.74 24 7 8.133 1.059 10.501-1.999 21 0 10.501 3 13.001 14.001 2.5 27m-105 3s-7.999 3.352 0 8.5m0-8.5c2.624 1.25 5.84 2.421 9.502 3.471m95.498-6.471s8.16 3 0 9m0-9c-6.094 3.161-13.36 5.755-21.498 7.676m-83.502 3.824s-12.705 21.934-15.498 37.5c-2.829 15.76-3.5 26.5 0 42-2.546 7.53-12.064 10.669-8.001 17.5 2.082 3.5 12.503-.374 20.5 0 23 9.5 36.454 11.955 60.499 11.5 24.248-.458 38.002-3.5 60.501-14 6.301-2.94 12.501 0 18.5-3.5 0-6.5-11.499-11.5-13.499-19.5 0-8 0-21.5-3-38-2.001-17.5-15.002-36-15.002-36m-105 2.5c1.779 1.145 4.886 2.665 9.502 4.13m95.498-6.63c-1.824 1.342-5.012 2.97-9.498 4.574m-87-30.074c9-2 17.823 4.338 25.5 5 9.921.857 9.663-.447 19.5-2 7.206-1.137 10.704-5.027 18-5 6.015.023 9.998 3.5 15 3.5 4.718 0 7.432-1.911 11-5m3.5 54c-.667-5.284-2.7-16.767-5.5-20.426m0 0c-9.45 3.38-24.658 6.655-45.002 6.926-12.913.173-25.64-1.494-33.498-3m72-24c-.167 2.951-1.5 9.916-5.5 14.176m0 0c-9.891 2.334-21.07 3.674-33.002 3.824-11.225.142-22.452-.978-31.998-2.872m-11-14.128c-.054 2.667.656 8.9 3.92 12.5m0 0a90 90 0 0 1-1.92-.529m1.92.529c2.226.59 4.596 1.135 7.08 1.628m-9-2.157c-.72 3.15-1.344 9.507 1.92 9.739m0 0c1.36.848 4.68.519 7.08-7.582m-7.08 7.582a69 69 0 0 1-1.92-.58m1.92.58q.999.288 2.08.568m5-8.15 1-3.128m-10 10.13s-6 8.87-7.5 15.87c-.666 3.109-1.516 6.995 1.5 8 3.015 1.006 5-2.5 6-5.5 2.183-6.55 4-17.222 4-17.222m0 0q.73.19 1.5.374m0 0s2 10.223 2 16.848c0 3 2.305 5.605 5 5 2.653-.595 2.5-3.5 2.5-6.5 0-5.945-7.5-15-7.5-15m-2-.348c1.404.337.403.043 2 .348"/><path fill="#84cff3" d="M206.436 581.689c26.799-.4 30.5 2.999 30.5 5 0 0 2 6.5 0 9.5 0 0 1.998 4.499 1.498 7.999-.299 2.091-1 3.5-2.5 4.5 0 0-.23 4.281 1.002 6.5 2.498 4.5 4.998 9.5 4.998 11v59.5c0 5-13.9 10.6-35.498 11-21.599.4-34.502-7-34.502-11v-59.5c.001-2 3.5-6 6.002-11 1.136-2.27.501-5.166 0-6.5-1.833-1.666-2.502-3-2.502-5.5 0-4 2.502-6.499 2.502-6.499-3.501-3-.5-10-.5-10-.501-1 2.2-4.6 29-5"/><path fill="#6eb6df" d="M233.432 640.688c0-20.951-12.998-29.549-7.498-30 5.5-.45 9-1.5 9-1.5l7 17v60.5c-2.334 3.5-12.201 10.5-33.002 10.5s-33.334-7-37-10.5c-.167-2.5-.4-7.5 0-7.5.5 0 2.502 9.449 37 10.5 13 0 24.002-5 24.5-6.5z"/><path fill="#f9e2b7" d="M182.935 678.189v-40s6.999-4.501 11.499-4.501c4.5.001 11 5.5 11 5.5 4.498 0 8.5-2 13-.999 6.5 1.444 12.499 6.833 13 9v31c.167 2-4.499 6.1-24.499 6.5s-24.333-4.167-24-6.5"/><path stroke="#000" stroke-linecap="round" stroke-width="4" d="M177.436 586.689c-.724 2.5 2.6 6.9 29 6.5s30.854-4.001 30.5-6.5m-59.5 0c-.501-1 2.2-4.6 29-5 26.799-.4 30.5 2.999 30.5 5m-59.5 0s-3.001 7 .5 10m59-10s2 6.5 0 9.5m-59 .5c2.918 2.5 7.299 4.9 28.5 4.5 21.2-.4 29.167-3 30.5-5m-59 .5s-2.502 2.499-2.502 6.499c0 2.5.669 3.834 2.502 5.5m59-12.499s1.998 4.499 1.498 7.999c-.299 2.091-1 3.5-2.5 4.5m-57.998 0c1.834 1.667 9.701 4.9 28.5 4.5 18.798-.4 25.748-2 29.498-4.5m-57.998 0c.501 1.334 1.136 4.23 0 6.5-2.502 5-6.001 9-6.002 11v59.5c0 4 12.903 11.4 34.502 11 21.598-.4 35.498-6 35.498-11v-59.5c0-1.5-2.5-6.5-4.998-11-1.232-2.219-1.002-6.5-1.002-6.5m-52.5 29s6.038-4.481 10.5-4.5c4.978-.02 6.615 4.54 11.5 5.5 5.187 1.02 8.334-2.124 13.5-1 6.351 1.383 14 9 14 9"/><path fill="#000" d="M143.45 79.863q-.78-3.585-3.741-5.279-2.96-1.693-7.639-1.151-3.178.368-5.263 1.52-2.088 1.124-3.077 2.819-.959 1.69-.729 3.67.13 1.656 1.023 2.798.921 1.14 2.375 1.883 1.45.712 3.296 1.168 1.841.425 3.903.642l5.669.68q4.123.434 7.654 1.544 3.532 1.11 6.244 3.015a15.4 15.4 0 0 1 4.406 4.716q1.722 2.81 2.197 6.643.623 5.641-1.746 10.109-2.343 4.434-7.416 7.331-5.048 2.864-12.543 3.731-7.436.861-13.217-.778-5.751-1.644-9.357-5.754-3.579-4.143-4.497-10.752l12.564-1.455q.567 3.063 2.366 4.952 1.825 1.855 4.585 2.599 2.787.71 6.145.321 3.299-.381 5.616-1.622 2.348-1.244 3.499-3.11t.895-4.084q-.24-2.069-1.633-3.336-1.362-1.27-3.816-1.989-2.423-.721-5.875-1.143l-6.881-.904q-7.985-.99-12.947-4.487-4.963-3.497-5.722-10.307-.675-5.574 1.84-10.089 2.546-4.519 7.552-7.468 5.007-2.95 11.723-3.728 6.837-.792 12.205.957 5.398 1.745 8.729 5.583t4.057 9.314zm562.931 19.585-3.148 26.619-12.769-1.51 5.443-46.043 12.171 1.439-.961 8.123.54.064q2.004-3.836 5.877-5.749 3.877-1.942 9.003-1.337 4.795.568 8.115 3.087t4.837 6.651q1.521 4.101.887 9.467l-3.467 29.316-12.769-1.51 3.197-27.038q.53-4.222-1.379-6.85-1.905-2.656-5.742-3.11-2.577-.305-4.687.57-2.08.88-3.44 2.876-1.328 1.971-1.708 4.935m-102.923-9.506-1.724 26.748-12.832-.826 3.975-61.69 12.471.803-1.52 23.586.542.035q1.83-3.996 5.474-6.09 3.646-2.124 8.917-1.785 4.82.31 8.268 2.65 3.481 2.312 5.217 6.356 1.767 4.015 1.388 9.436l-1.899 29.459-12.832-.827 1.751-27.17q.306-4.275-1.739-6.797-2.016-2.52-5.932-2.772-2.62-.168-4.71.816-2.06.986-3.343 3.051-1.25 2.037-1.472 5.017m-38.198 26.086q-7.118-.271-12.131-3.484-4.98-3.24-7.52-8.744-2.508-5.504-2.241-12.53.272-7.12 3.222-12.383 2.98-5.294 8.193-8.116 5.214-2.85 12.242-2.584 6.062.232 10.533 2.607t6.973 6.459q2.502 4.082 2.569 9.462l-12.125-.463q-.381-3.488-2.502-5.683-2.09-2.225-5.619-2.36-2.986-.113-5.28 1.43-2.264 1.515-3.617 4.544-1.355 3.03-1.521 7.403-.17 4.434.919 7.587 1.118 3.154 3.288 4.868t5.156 1.828q2.202.084 3.986-.754 1.814-.837 3.026-2.513 1.242-1.704 1.698-4.134l12.125.462q-.504 5.298-3.252 9.24-2.717 3.915-7.328 6.004-4.61 2.09-10.794 1.854m-25.363-48.47-.241 9.656-27.912-.697.241-9.656zm-21.298-11.644 12.855.321-1.079 43.211q-.045 1.78.474 2.79.519.98 1.475 1.396.986.416 2.283.449.906.023 1.814-.106.91-.157 1.395-.237l1.783 9.616q-.974.278-2.733.627-1.76.379-4.267.406-4.652.066-8.117-1.44-3.434-1.505-5.291-4.541-1.857-3.035-1.713-7.591l1.121-44.9Zm-29.828 55.321.46-46.36 12.858.127-.46 46.361zm6.978-52.273q-2.867-.03-4.901-1.95-2.003-1.953-1.976-4.639.026-2.655 2.067-4.537 2.072-1.911 4.939-1.883t4.871 1.98q2.034 1.921 2.007 4.578-.027 2.686-2.098 4.598-2.041 1.881-4.909 1.853m-63.943 52.227V49.37h13.07v27.257h.815l22.247-27.257h15.665l-22.94 27.68 23.212 34.139h-15.636l-16.933-25.416-6.43 7.848v17.568zm-28.587-33.137-11.771.744a6.1 6.1 0 0 0-1.302-2.715q-.998-1.236-2.629-1.958-1.602-.751-3.835-.748-2.988.004-5.039 1.276-2.05 1.24-2.047 3.323.003 1.66 1.333 2.805t4.561 1.834l8.394 1.677q6.764 1.378 10.088 4.451 3.325 3.074 3.334 8.085.007 4.557-2.674 8.003-2.65 3.446-7.296 5.384-4.616 1.91-10.652 1.919-9.207.015-14.676-3.81-5.44-3.855-6.386-10.494l12.646-.684q.579 2.805 2.784 4.282 2.206 1.445 5.647 1.439 3.38-.005 5.431-1.306 2.08-1.332 2.108-3.415-.033-1.75-1.484-2.865-1.45-1.145-4.47-1.743l-8.032-1.587q-6.793-1.347-10.119-4.693-3.295-3.345-3.304-8.537-.007-4.467 2.403-7.7 2.439-3.235 6.844-4.992 4.434-1.758 10.38-1.767 8.784-.015 13.831 3.69 5.077 3.705 5.932 10.102M357.341 51.37v6.52q0 2.778-1.087 5.675a24 24 0 0 1-2.837 5.433q-1.78 2.536-3.894 4.317l-5.675-3.35q1.51-2.385 2.657-5.283 1.177-2.898 1.177-6.731v-6.58h9.659Zm-46.725 64.075q-4.433.206-7.971-1.171-3.54-1.406-5.703-4.358-2.133-2.982-2.346-7.566-.18-3.86 1.116-6.548 1.294-2.69 3.663-4.401 2.369-1.712 5.436-2.67a42 42 0 0 1 6.52-1.452q4.02-.61 6.476-1.087 2.454-.507 3.535-1.312 1.08-.806 1.012-2.283l-.009-.181q-.132-2.865-2.015-4.349-1.851-1.485-5.138-1.332-3.468.162-5.447 1.794-1.98 1.604-2.537 3.926l-11.924-.413q.708-4.263 3.218-7.462 2.509-3.23 6.623-5.082 4.143-1.885 9.691-2.143 3.86-.18 7.429.561 3.6.74 6.432 2.511a13.64 13.64 0 0 1 4.6 4.681q1.735 2.88 1.927 7.012l1.453 31.237-12.182.567-.298-6.423-.362.017a13.1 13.1 0 0 1-2.807 3.968q-1.794 1.716-4.374 2.772-2.58 1.027-6.018 1.187m3.266-9.036q2.835-.132 4.954-1.348 2.116-1.248 3.264-3.234 1.146-1.988 1.033-4.43l-.229-4.915q-.584.42-1.625.801a30 30 0 0 1-2.295.68q-1.285.303-2.572.574l-2.336.44q-2.246.438-3.901 1.24t-2.532 2.082q-.879 1.25-.795 3.058.123 2.623 2.087 3.922 1.992 1.268 4.947 1.13M288.451 68.95l.337 9.653-27.904.974-.337-9.653zm-21.957-10.348 12.851-.449 1.508 43.198q.063 1.78.64 2.757.576.946 1.556 1.304 1.008.358 2.306.313a11 11 0 0 0 1.805-.214q.898-.213 1.378-.32l2.355 9.492q-.955.335-2.691.788-1.735.484-4.236.662-4.639.343-8.188-.953-3.518-1.296-5.553-4.216-2.035-2.918-2.164-7.475zm-30.565 59.132q-7.15.193-12.389-2.564-5.21-2.788-8.13-8.053-2.92-5.296-3.12-12.628-.194-7.151 2.436-12.627t7.587-8.63q4.988-3.155 11.807-3.34 4.586-.124 8.579 1.248a18.9 18.9 0 0 1 7.059 4.187q3.066 2.846 4.846 7.236 1.779 4.36 1.939 10.275l.095 3.53-39.135 1.06-.216-7.966 27.036-.732q-.075-2.776-1.34-4.886a8.65 8.65 0 0 0-3.44-3.258q-2.146-1.18-4.952-1.104-2.927.08-5.153 1.498a9.5 9.5 0 0 0-3.403 3.686q-1.207 2.267-1.162 5.013l.205 7.574q.093 3.44 1.428 5.91 1.365 2.469 3.755 3.763 2.391 1.294 5.619 1.207 2.143-.058 3.907-.71t2.998-1.893q1.234-1.24 1.851-3.009l11.91.462q-.79 4.31-3.509 7.584-2.69 3.244-7.047 5.143-4.328 1.868-10.061 2.024m426.045 4.924q-7.138-.475-12.095-3.711-4.925-3.262-7.341-8.778-2.412-5.547-1.925-12.865.477-7.137 3.607-12.344 3.13-5.205 8.361-7.883 5.26-2.673 12.067-2.22 4.578.306 8.425 2.044 3.879 1.71 6.636 4.83 2.786 3.12 4.148 7.658 1.363 4.507.969 10.41l-.235 3.524-39.063-2.605.531-7.951 26.985 1.8q.185-2.771-.877-4.99a8.65 8.65 0 0 0-3.12-3.566q-2.026-1.376-4.827-1.562-2.921-.195-5.271 1.01a9.5 9.5 0 0 0-3.732 3.35q-1.414 2.145-1.627 4.883l-.504 7.56q-.23 3.434.869 6.018 1.128 2.586 3.387 4.098c2.259 1.512 3.333 1.583 5.482 1.727q2.138.142 3.955-.342 1.818-.483 3.163-1.604t2.124-2.823l11.814 1.575q-1.188 4.216-4.202 7.222-2.982 2.977-7.498 4.461-4.484 1.455-10.206 1.074M207.926 70.822l-11.777 47.682-14.425 1.362-20.497-44.633 13.523-1.278 12.706 32.121.481-.046 6.436-33.928z"/><defs><filter id="SvgjsFilter1001" width="882.176" height="804.615" x=".3" y=".3" color-interpolation-filters="sRGB" filterUnits="userSpaceOnUse"><feFlood flood-opacity="0" result="BackgroundImageFix"/><feColorMatrix in="SourceAlpha" result="hardAlpha" values="0 0 0 0 0 0 0 0 0 0 0 0 0 0 0 0 0 0 127 0"/><feOffset dx="5" dy="5"/><feGaussianBlur stdDeviation="13.35"/><feComposite in2="hardAlpha" operator="out"/><feColorMatrix values="0 0 0 0 0 0 0 0 0 0 0 0 0 0 0 0 0 0 0.3 0"/><feBlend in2="BackgroundImageFix" result="effect1_dropShadow_42_493"/><feBlend in="SourceGraphic" in2="effect1_dropShadow_42_493" result="shape"/></filter></defs></svg><style>@media (prefers-color-scheme:light){:root{filter:none}}@media (prefers-color-scheme:dark){:root{filter:none}}</style></svg>