<svg xmlns="http://www.w3.org/2000/svg" width="84" height="72" fill="none" viewBox="0 0 84 72"><path fill="#f2a038" d="M1.405 62.339s-4.342-8.902 15.415-18.02c1.411-.652 2.081.99 3.474.868 2.401-.212 2.659-2.758 4.776-3.908 3.2-1.739 5.504-2.398 9.12-1.954 2.315.284 3.244 1.302 5.21 1.302 1.737 0 3.257-1.52 4.343-1.52 3.691 0 7.314-.356 11.29 1.303 1.085.454 3.102 3.136 5.645 3.04 1.34-.05 1.954-1.086 3.256-.869 8.25 3.257 15.416 8.468 18.455 14.547.91 1.82 0 5.211 0 5.211-.507 2.605-9.38 7.946-40.818 8.468-31.438.52-39.877-5.428-40.166-8.468"/><path fill="#ce742e" d="M40.486 66.03c-26.922.695-37.778-4.777-39.08-8.25-.694 1.91.506 5.644 1.302 6.947 1.23 1.665 10.495 6.08 37.778 6.08 27.14 0 39.298-5.14 41.903-8.251v-5.21c-1.085 3.473-14.98 7.989-41.903 8.684M25.07 41.279c-2.117 1.15-2.375 3.696-4.776 3.908-1.393.123-2.063-1.52-3.474-.869 0 0 3.11 3.056 5.211 6.297 1.82 2.807 2.387 5.862 3.04 5.862.651 0 1.56-4.51 1.303-8.468-.227-3.49-1.304-6.73-1.304-6.73m18.673-2.171c-1.086 0-2.606 1.52-4.343 1.52-1.966 0-2.895-1.019-5.21-1.303 1.664 1.954 4.373 4.993 5.862 7.599 2.605 4.56 2.822 8.901 3.474 8.901.651 0 2.17-5.21 2.17-9.336 0-3.907-1.157-6.079-1.953-7.381m20.191 3.474c-1.302-.218-1.917.817-3.256.868-2.543.096-4.56-2.586-5.646-3.04 1.303 1.665 3.81 3.908 4.994 8.25 1.125 4.126 1.086 6.514 1.737 6.731.652.217 2.79-3.04 3.04-6.296.267-3.474-.507-5.21-.87-6.514"/><path stroke="#000" stroke-width="1.737" d="M16.82 44.318C-2.937 53.438 1.405 62.34 1.405 62.34c.29 3.04 8.728 8.989 40.166 8.468s40.311-5.863 40.818-8.468c0 0 .91-3.39 0-5.21-3.04-6.08-10.204-11.29-18.455-14.547M16.82 44.317c1.411-.65 2.081.992 3.474.869 2.401-.212 2.659-2.758 4.776-3.908m-8.25 3.04s3.11 3.055 5.211 6.296c1.82 2.807 2.387 5.862 3.04 5.862.651 0 1.56-4.51 1.303-8.468-.227-3.49-1.304-6.73-1.304-6.73m38.864 1.302c-1.302-.217-1.917.818-3.256.869-2.543.096-4.56-2.586-5.646-3.04m8.902 2.172c.362 1.302 1.136 3.04.869 6.513-.25 3.257-2.388 6.513-3.04 6.296-.651-.217-.611-2.605-1.737-6.73-1.184-4.343-3.691-6.586-4.994-8.25m0 0c-3.975-1.66-7.598-1.303-11.29-1.303m0 0c-1.085 0-2.605 1.52-4.341 1.52-1.967 0-2.897-1.019-5.212-1.303m9.554-.217c.796 1.302 1.954 3.474 1.954 7.382 0 4.125-1.52 9.335-2.171 9.335-.652 0-.869-4.342-3.474-8.901-1.489-2.606-4.198-5.645-5.863-7.6m0 0c-3.615-.443-5.919.216-9.119 1.955"/><path fill="#ffdf93" d="M17.906 50.398c0 .959-.875 2.17-1.954 2.17-1.08 0-1.954-.343-1.954-1.302s.875-2.171 1.954-2.171c1.08 0 1.954.343 1.954 1.303m33.748-4.826c-.213.56-1.028 1.06-1.7.805-.672-.256-1.141-.664-.928-1.225.213-.56 1.028-1.06 1.7-.804.673.255 1.141.664.928 1.224m21.776 5.912c-.242.634-1.319 1.604-2.113 1.302-.793-.302-1.221-1.188-.98-1.822s1.19-1.19 1.983-.888 1.35.774 1.11 1.408m-3.545-2.918c-.095.25-.563.616-.93.476s-.583-.506-.487-.756.513-.453.88-.313c.368.14.632.343.537.593m-16.276-4.429c-.154.185-.583.225-.873-.014s-.47-.501-.316-.687.583-.226.873.014.47.501.316.687m2.388 3.606c-.213.56-1.028 1.06-1.7.805-.673-.256-1.141-.664-.928-1.224s.558-1.09 1.23-.834c.673.255 1.611.693 1.398 1.253M36.298 46.4c.124.424-.102 1.07-.574 1.208-.471.138-.898.098-1.022-.325-.123-.423-.115-.745.357-.882.471-.138 1.115-.423 1.24 0m-.9-1.214c-.393.445-1.833 1.032-2.51.434-.68-.598-.922-1.275-.302-2.196.62-.92.694 0 1.271.816.678.598 2.17-.651 1.54.946m-3.15 1.833c-.485.352-1.44.323-1.863-.26-.422-.582-.59-1.18-.104-1.532s1.064-.605 1.486-.023c.422.583.967 1.464.481 1.815"/><path stroke="#000" stroke-linecap="round" stroke-width="1.154" d="M23.987 21c-.72.77-1.73 2.885 0 5.192 2.164 2.885 1.154 4.616 0 6.49s-1.875 2.164-.577 4.471"/><path stroke="#000" stroke-linecap="round" stroke-width="1.157" d="M43.34 1c-1.687 1.639-3.75 5.502 0 9.397 3.759 3.904 1.88 6.979-.723 9.398-1.089 1.012-4.192 4.77 0 9.108"/><path stroke="#000" stroke-linecap="round" stroke-width="1.108" d="M56.94 17c.922 1.062 1.523 3.324-.416 5.678-1.342 1.63-1.385 4.294 0 5.679s2.77 3.324.415 5.54"/></svg>