<svg xmlns="http://www.w3.org/2000/svg" width="285" height="204" fill="none" viewBox="0 0 285 204"><path fill="#787878" fill-opacity=".28" d="M282.67 20.716c-2.048-1.044-5.43-1.167-7.573-2.966l-.089-.075c-.682-.573-1.353-1.235-2.132-2.013a75 75 0 0 0-1.415-.987c-.284-.193-.556-.381-.844-.573a77 77 0 0 0-9.235-5.297c-12.442-5.882-20.887-4.209-23.614-3.912-5.364.795-10.789.553-18.053.486l-.565-.006c-.85-.008-1.7-.002-2.596.028-1.027.033-1.939-.882-2.044-2.086-.104-1.202.712-2.241 1.824-2.28A68 68 0 0 1 219.2.999l.481.004h.009c7.401.067 12.796.309 18.125-.467 2.857-.29 11.56-2.06 24.922 4.142a83 83 0 0 1 9.96 5.607c.297.197.607.402.903.6l.021.015q.546.367 1.06.725c.862.866 1.556 1.563 2.261 2.157l.054.042c2.151 1.812 5.427 1.87 7.344 2.854.368.19.289 1.246-.163 2.364-.454 1.118-1.123 1.87-1.507 1.674m-154.425 108.49c-.18 2.888-2.415 5.348-4.902 7.123-2.499 1.788-5.372 3.041-6.913 3.592-.812.284-1.55.719-2.3 1.313-.11-.106-.273-.059-.526.078-.125.067-.273.159-.446.264-.569.347-1.421.846-2.602 1.215-4.447 1.388-7.689 2.778-9.766 3.822-.437.215-.838.419-1.215.606h-.002c-1.366.678-2.402 1.139-3.439 1.022q-.066-.002-.132-.007c-2.263-.177-4.069-.452-6.247-1.461-2.999-1.379-6.064-.543-8.622 1.286q-.204.152-.42.31a32 32 0 0 1-2.304 1.539c-1.051.892-2.458 1.807-4.385 2.502-2.514.899-4.83.734-6.797.326a28 28 0 0 1-1.612-.394c-1.294-.346-2.426-.7-3.539-.809a28 28 0 0 1-1.876-.247c-6.82-1.209-10.474-3.181-12.593-5-1.803-1.56-2.52-3.084-3.029-4.177-.154-.332-.284-.627-.417-.871-1.204-2.18-2.508-3.493-4.05-5.122-.352-.366-.696-.742-1.074-1.154-1.235-1.368-2.47-1.823-3.588-2.022a15 15 0 0 0-1.387-.163h-.026l-.185-.019c-.046-.005-.095-.005-.141-.01q-.038.017-.06.024l-.03.011-.004.003c-.111.039-.19.037-.206.037q-.043-.002-.063-.007a1 1 0 0 1-.19-.051 14 14 0 0 1-.7-.286 9 9 0 0 0-1.096-.197l-.082-.01a18 18 0 0 1-1.58-.286c-.586-.132-.743-1.159-.308-2.28.432-1.123 1.326-1.898 1.933-1.757.636.149 1.12.224 1.56.291l.084.011c.452.067.869.127 1.276.243.135.039.27.084.395.129.236.056.517.091.843.121l.202.022c.451.042.947.077 1.478.172 1.235.217 2.557.713 3.842 2.171.34.384.665.741.99 1.091 1.478 1.6 2.805 2.975 4.018 5.256.166.313.32.656.48 1.017.473 1.067 1.068 2.358 2.664 3.774 1.94 1.704 5.376 3.61 12 4.771.533.086 1.086.156 1.668.21 1.077.098 2.187.46 3.397.797.46.129.938.25 1.425.356 1.78.387 3.85.537 6.07-.316 1.855-.718 3.15-1.665 4.098-2.579.74-.459 1.377-.9 1.946-1.313l.186-.141.228-.168c2.727-1.946 5.647-2.805 8.818-1.253 1.968.964 3.605 1.255 5.734 1.453l.076.015c.869.161 1.693-.208 2.987-.851l1.216-.604c1.964-.99 5.136-2.368 9.2-3.504 1.023-.28 1.711-.667 2.126-.883.129-.067.233-.116.309-.136.139-.036.191.019.169.269.872-.714 1.75-1.252 2.735-1.595 1.434-.51 4.21-1.707 6.593-3.395 2.409-1.703 4.355-3.93 4.475-6.405.012-.256.029-.515.039-.77.101-2.206.105-4.421-.883-6.758a30 30 0 0 1-1.425-2.643c-1.967-15.099 9.49-21.733 13.726-26.906l.188-.221a59 59 0 0 0 2.276-2.862c3.912-5.675 5.853-7.869 7.666-10.351a180 180 0 0 0 3.683-5.067l.134-.194c.605-.853 1.013-1.681 1.429-2.54l.067-.14c.439-.905.896-1.836 1.585-2.794 2.539-3.522 4.126-6.385 4.805-8.039l.01-.022c.175-.394.363-.812.548-1.24l.002-.003c.823-1.895 1.674-3.932 2.67-5.92 1.827-3.657 3.054-6.675 4.062-9.16.318-.786.62-1.531.922-2.254.655-1.565 1.302-3.011 2.185-4.54.633-1.091 1.286-2.218 2.004-3.403.354-.752.937-1.96 1.755-3.445q.178-.319.372-.657c1.572-2.736 3.929-6.393 7.92-10.19.93-.883 2.416-.864 3.218.038.804.9.7 2.278-.149 3.081-3.585 3.397-5.778 6.756-7.304 9.42q-.188.331-.361.65c-.823 1.495-1.442 2.766-1.854 3.605-.65 1.076-1.25 2.112-1.835 3.12-.813 1.41-1.403 2.73-2.026 4.223-.298.715-.597 1.462-.923 2.27-.998 2.47-2.211 5.471-4.058 9.17-.988 1.97-1.842 4.005-2.71 5.988a125 125 0 0 1-.626 1.408c-.797 1.86-2.451 4.808-5.029 8.389-.662.921-1.104 1.812-1.546 2.722l-.076.152c-.417.86-.848 1.74-1.492 2.648q-.13.18-.329.462c-1.409 2.134-4.096 5.337-10.991 14.897a61 61 0 0 1-2.445 3.097c-3.86 4.564-6.593 7.44-7.541 10.484-.775 2.414-1.75 4.041-2.628 5.37q-.251.382-.481.725c-.672.999-1.211 1.809-1.56 2.794-.903 2.566-1.135 5.015-.699 8.213q.222.592.489 1.239c1.088 2.659 1.035 5.171.899 7.395l-.001.01zm-107.292 1.932c-.54-.277-.58-1.387-.099-2.493.483-1.106 1.319-1.783 1.877-1.499 1.323.676 2.672 1.386 4.006 2.118.268.146.411.478.435.904l-.811-.376c.072.482-.021 1.072-.283 1.648-.256.561-.621 1-1.001 1.254l.714.33c-.348.242-.687.321-.954.174a150 150 0 0 0-3.884-2.06m125.978 9.397c-.123.582-1.059.558-2.077-.056-1.017-.613-1.745-1.567-1.632-2.131.062-.301.139-.8.24-1.479.195-1.336.464-3.339.776-5.78.708-6.391 3.628-15.959 7.783-24.002.483-.937.894-1.785 1.275-2.592 1.024-2.18 1.03-4.661 1.726-7.578.782-2.31 1.801-4.442 3.527-6.77 5.981-8.03 12.482-15.359 17.32-22.404 4.461-6.648 8.323-14.59 14.31-22.771 2.574-3.31 5.83-8.409 11.22-12.068 5.376-3.74 11.914-5.048 17.496-5.19 4.058-.166 8.137-.375 12.269-.624 9.581-.492 19.14.072 29.639 3.392 1.354.45 2.906 1.07 4.588 1.928 6.905 3.772 15.31 8.94 17.543 9.655.411.16.48 1.225.155 2.388-.321 1.162-.958 1.97-1.415 1.796-2.499-.79-11.224-6.111-18.067-9.85a29 29 0 0 0-4.07-1.728c-9.714-3.107-19.115-3.72-28.479-3.21a790 790 0 0 0-12.216.861c-10.526-.11-19.457 8.398-23.439 16.284-4.78 7.612-7.938 15.743-12.146 23.27-4.818 8.387-11.011 16.05-16.879 23.948-1.668 2.247-3.182 3.832-4.51 5.287-2.113 2.244-3.858 3.535-4.907 5.749a87 87 0 0 1-1.318 2.668c-4.324 8.303-7.186 17.983-7.646 24.013-.317 2.261-.59 4.127-.793 5.414a37 37 0 0 1-.273 1.58m-17.984 18.175c-5.167 5.019-13.166 8.584-20.447 11.007-1.59.525-3.157.992-4.657 1.396-1.787.477-3.452.892-4.919 1.258-4.133 1.023-7.024.547-9.752-.003l-.088-.017c-2.344-.479-4.619-1.029-7.783-.942a41 41 0 0 0-1.683.084c-4.15.301-9.902 1.157-15.874 1.185l-.014-.002c-2.769.022-5.649.362-8.43.518-3.073.202-5.969.287-8.183-.412-14.562-4.623-21.637-11.765-24.628-15.789-1.613-2.175-3.636-3.712-5.982-4.934l.066.031c-3.8-2.167-8.288-3.321-11.62-5.961l.12.056c-.984-.959-2.443-2.52-3.926-4.053-.742-1.451 2.304-4.048 4.188-2.063q.095.091.186.182c.576.568.991 1.031 1.405 1.432q.158.12.285.21l-.311-.147c.59.351 1.123.583 1.627.8.883.405 5.7 2.594 9.993 5.517l-.203-.094c2.938 1.846 5.223 3.79 6.38 5.348 2.907 3.84 11.435 5.801 25.01 10.146 2.058.655 4.403 2 7.065 3.15 2.228.977 4.734 1.743 7.333 1.708h.046c5.594-.059 11.052-.901 14.992-1.177a35 35 0 0 1 1.575-.072c3.294-.094 5.582.494 7.88.992l.078.018c2.596.557 5.215 1.029 9.03.093 1.416-.351 3.018-.75 4.74-1.207a84 84 0 0 0 4.514-1.342c6.898-2.261 14.554-5.726 19.006-10.112.397-.391 1.401-.032 2.264.813.86.846 1.182 1.928.717 2.383m17.957 20.48c-12.039 13.146-20.416 17.31-33.099 21.477-8.631 2.611-20.808 3.615-28.262 2.275a67 67 0 0 1-2.312-.191c-6.225.549-14.668.395-22.871-.915l-.277-.049a107 107 0 0 1-10.672-2.263 279 279 0 0 1-8.988-2.638c-16.802-5.219-26.89-11.397-30.039-15.5-2.993-3.93-3.635-4.241-4.659-4.719l-.073-.038-.01.008-.017.011c-.163-.034-.594-.309-.756-.35a.6.6 0 0 1-.12.037.3.3 0 0 1-.097 0c-.03-.004-.053-.014-.06-.017a.5.5 0 0 1-.092-.044c-.21-.125-.842-.57-1.324-.987-.495-.429-.813-.831-1.155-1.267l-.104-.134a12 12 0 0 0-1.224-1.368c-.346-.332-.23-1.482.284-2.563.514-1.08 1.23-1.68 1.586-1.344a13.4 13.4 0 0 1 1.423 1.582c.34.425.64.781 1.1 1.173a14 14 0 0 0 1.7.967c.133.033.488.259.622.288l.055.025c1.147.533 1.997.958 5.148 5.079 3.01 3.888 12.453 9.785 28.96 14.945a274 274 0 0 0 8.794 2.59c3.223.863 6.701 1.622 10.23 2.188l.274.042c7.863 1.27 15.943 1.434 21.874.919a69 69 0 0 0 2.162-.213c7.356-.637 18.1-3.133 26.03-6.043 11.393-4.372 19.257-7.131 32.939-16.117 1.499-1.401 3.074-2.973 4.792-5.016.866-1.12 2.007-2.458 3.136-3.79 5.124-5.987 9.752-11.884 11.407-18.931.186-.785.745-2.069 1.556-3.818.289-.937.861-2.254 1.745-3.972a109 109 0 0 1 1.894-3.492c1.799-3.214 4.235-7.282 6.973-12.321a123 123 0 0 0 1.552-2.965c1.352-2.678 2.515-5.019 4.538-8.613.305-.661 1.277-2.152 2.651-3.994 4.573-6.234 13.394-16.03 19.768-25.705.789-1.201 1.47-2.264 2.073-3.202 2.54-3.975 3.86-5.826 4.888-7.137.281-.36.533-.668.761-.948.595-.73 1.048-1.28 1.545-2.016 1.943-2.874 3.265-5.108 3.912-6.443 1.883-3.112 2.694-4.854 2.511-5.297-.025-.069.601.613 1.422 1.495s1.601 1.567 1.707 1.556c.669-.069-.057 1.463-2.045 4.747-.446 1.03-1.733 3.169-3.645 5.986-.509.75-.992 1.33-1.594 2.068-.224.274-.465.57-.731.912-1.01 1.288-2.308 3.103-4.885 7.152-.608.95-1.298 2.03-2.103 3.262-6.649 10.145-15.51 19.95-20.014 26.099-1.358 1.818-2.297 3.269-2.489 3.751-2.041 3.62-3.22 5.972-4.595 8.678-.491.961-1.006 1.958-1.598 3.045-2.806 5.14-5.265 9.242-7.048 12.435a100 100 0 0 0-1.853 3.434c-.91 1.783-1.429 3.046-1.659 3.886-.76 1.627-1.257 2.767-1.42 3.43-1.808 7.486-6.816 13.838-12.018 19.904-1.117 1.318-2.23 2.622-3.029 3.661-1.84 2.182-3.507 3.844-5.075 5.313m82.091-118.553c-.461.037-.814-.911-.788-2.117.027-1.206.429-2.216.903-2.252 2.491-.194 4.261-.33 5.639-.429 2.543-.176 3.758-.234 5.509.01 4.493.633 8.596 1.484 11.242 2.363.873.285 1.571.566 2.01.778 5.022 2.316 9.522 4.354 12.223 5.627.528.252.6 1.365.152 2.486-.448 1.12-1.261 1.817-1.806 1.559-2.762-1.298-7.342-3.373-12.352-5.684-.245-.124-.774-.346-1.496-.585-2.237-.758-6.138-1.585-10.488-2.198-1.636-.23-2.745-.177-5.162 0-1.339.1-3.083.242-5.586.442"/></svg>